<svg xmlns="http://www.w3.org/2000/svg" viewBox="0 0 325 130"><defs><style>.a{font-size:79px;fill:#fff;font-family:Lato-Black, Lato;font-weight:800;}.b{font-size:25px;font-family:Lato-Regular, Lato;}.b,.c{fill:#ffc62a;}</style></defs><title>Artboard 1</title><text class="a" transform="translate(96 88.469)">Home</text><text class="b" transform="translate(100 111.723)">there is food</text><path class="c" d="M42.392,105.144a9.678,9.678,0,0,1-6.523-5.508,11.08,11.08,0,0,1-1.1-5.6,10.631,10.631,0,0,1,1.775-5.268,10.285,10.285,0,0,1,4.219-3.633,7.493,7.493,0,0,1,5.031-.738,4.834,4.834,0,0,1,3.377,2.765,4.738,4.738,0,0,1,.508,3.084,4.86,4.86,0,0,0-2.393-.521,6.146,6.146,0,0,0-2.555.607,5.094,5.094,0,0,0-2.813,3.093,5.717,5.717,0,0,0,.414,4.354,5.812,5.812,0,0,0,3.089,3.078,4.793,4.793,0,0,0,4-.157,5.92,5.92,0,0,0,3.223-4.251,17.386,17.386,0,0,0-.422-7.853L48.264,71.135l-.285.136a14.521,14.521,0,0,1-2.7,6.364,14.245,14.245,0,0,1-5.343,4.3A13.639,13.639,0,0,1,31.612,83.2a15.409,15.409,0,0,1-7.824-4.013,27.726,27.726,0,0,1-6.218-8.719,33.279,33.279,0,0,1-3.4-15.928,28.863,28.863,0,0,1,4.562-14.652,27.228,27.228,0,0,1,11.42-10Q36.212,26.992,41,27.945a9.428,9.428,0,0,1,6.966,5.517,8.413,8.413,0,0,1,.85,5.634,5.316,5.316,0,0,1-3.036,3.725,6.346,6.346,0,0,1-2.8.638,5.789,5.789,0,0,1-2.743-.705,7.24,7.24,0,0,0,.864-3.782,9.817,9.817,0,0,0-.928-4.24,4.81,4.81,0,0,0-2.831-2.72,5.484,5.484,0,0,0-4.09.508Q29.114,34.494,27.016,40a29.469,29.469,0,0,0-1.626,12.55,36.875,36.875,0,0,0,3.568,13.528q2.552,5.347,5.607,7.347a6.022,6.022,0,0,0,6.263.468q3.85-1.837,4.87-7.313t-.908-14.1l8.447-3.944,6.229,26.44q2.787,11.712,1,18.693a14.87,14.87,0,0,1-8.419,10.145A13.926,13.926,0,0,1,42.392,105.144Z"/><path class="c" d="M70.652,73.844Q66.293,72.6,63.5,66.751a38.736,38.736,0,0,1-3.23-11.72,27.923,27.923,0,0,1,1.408-13.19,16.764,16.764,0,0,1,9.064-9.621q8.412-4.015,13.648,5.3a5.748,5.748,0,0,0,1.947-3.074,24.531,24.531,0,0,0,.767-4.261L89.389,29.1a57.755,57.755,0,0,1-.547,7.658,12.693,12.693,0,0,1-2.237,5.4,36.777,36.777,0,0,1,2.869,13.074,21.7,21.7,0,0,1-2.3,10.682,14.917,14.917,0,0,1-6.889,6.659Q75.01,75.091,70.652,73.844Zm12.3-15.676a34.79,34.79,0,0,0-1.9-12.049q-2.018.175-3.242-2.391-1.328-2.781.227-4.661a7.519,7.519,0,0,0-2.263-2.815,2.44,2.44,0,0,0-2.386.044q-2.354,1.124-2.876,5.531a33.585,33.585,0,0,0,.456,9.849,36,36,0,0,0,2.713,9.078q1.633,3.423,2.979,4.224a3.516,3.516,0,0,0,3.413-.184Q82.713,63.536,82.954,58.168Z"/></svg>